<?xml version="1.0" encoding="utf-8"?>
<!-- Generator: Adobe Illustrator 14.0.0, SVG Export Plug-In . SVG Version: 6.00 Build 43363)  -->
<!DOCTYPE svg PUBLIC "-//W3C//DTD SVG 1.1//EN" "http://www.w3.org/Graphics/SVG/1.1/DTD/svg11.dtd">
<svg version="1.1" id="Layer_1" xmlns="http://www.w3.org/2000/svg" xmlns:xlink="http://www.w3.org/1999/xlink" x="0px" y="0px"
	 width="425.2px" height="425.2px" viewBox="0 0 425.2 425.2" enable-background="new 0 0 425.2 425.2" xml:space="preserve">
<path fill-rule="evenodd" clip-rule="evenodd" fill="#CB884C" d="M320.346,225.99c-24.465,0-37.609,31.685-37.609,63.886
	c0,5.925,0.516,16.24,2.327,24.214c-28.856-2.314-37.36-36.063-37.36-75.988c73.422-9.019,114.127-79.347,114.127-126.743
	c0-25.245-11.598-44.05-35.561-44.05c-53.837,0-90.415,91.446-91.195,165.121c-21.374-0.304-42.387-6.682-56.066-20.015
	c34.337-26.998,52.721-69.205,52.721-101.056c0-25.245-11.584-44.05-35.548-44.05c-53.836,0-90.428,91.446-91.446,165.121
	c-36.076-0.517-71.359-18.542-71.359-58.479c0-26.792,17.773-47.66,43.534-47.66c8.239,0,13.913,2.578,16.743,4.125l5.923-11.333
	c-4.376-1.799-11.597-4.893-22.414-4.893c-31.421,0-55.385,24.729-55.385,57.962c0,35.032,26.277,66.981,83.208,66.981
	c0.768,46.881,15.975,80.113,51.787,81.912c5.66,18.554,16.478,33.498,33.484,36.843c1.282-3.094,2.578-6.691,3.861-10.051
	c-12.616-2.578-21.383-13.647-26.277-27.559c31.686-6.189,47.66-37.095,47.66-61.825c0-8.372-1.835-15.963-5.472-21.698
	c7.581,1.538,15.916,2.377,25.045,2.377c0.78,46.881,15.975,80.113,51.787,81.912c5.66,18.554,16.742,33.498,33.483,36.843
	c1.548-3.094,2.579-6.691,3.875-10.051c-12.63-2.578-21.384-13.647-26.277-27.559c31.686-6.189,47.647-37.095,47.647-61.825
	C345.591,240.417,337.352,225.99,320.346,225.99z M326.271,74.001c15.459,0,23.196,14.679,23.196,35.296
	c0,43.019-34.528,111.799-101.51,121.585C251.314,161.587,284.032,74.001,326.271,74.001z M172.984,205.408
	c-5.979-8.388-9.52-18.823-9.52-31.457c0-26.792,18.039-47.66,43.535-47.66c4.255,0,7.735,0.646,10.505,1.484
	C212.532,153.901,197.586,184.218,172.984,205.408z M196.182,74.001c15.459,0,23.183,14.679,23.183,35.296
	c0,2.018-0.076,4.092-0.228,6.214c-3.367-0.769-7.32-1.32-11.873-1.32c-31.435,0-55.397,24.729-55.397,57.962
	c0,14.267,4.405,28.021,13.451,39.315c-13.384,9.703-29.21,16.749-47.451,19.414C121.214,161.587,153.931,74.001,196.182,74.001z
	 M165.528,313.575c-2.314-8.49-3.346-17.774-3.346-26.78c0-28.856,10.037-53.849,28.842-53.849
	c9.02,0.516,13.661,10.566,13.661,22.931C204.685,277.513,191.54,307.65,165.528,313.575z M152.383,289.876
	c0,5.925,0.78,16.24,2.579,24.214c-29.107-2.314-37.346-36.063-37.346-75.988c20.54-2.523,38.517-9.849,53.76-20.126
	c3.513,3.286,7.504,6.28,11.995,8.912C163.28,232.23,152.383,260.838,152.383,289.876z M295.617,313.575
	c-2.063-8.49-3.347-17.774-3.347-26.78c0-28.856,10.303-53.849,28.856-53.849c9.271,0.516,13.648,10.566,13.648,22.931
	C334.774,277.513,321.894,307.65,295.617,313.575z"/>
</svg>
